<svg xmlns="http://www.w3.org/2000/svg" xmlns:xlink="http://www.w3.org/1999/xlink" id="Layer_1" x="0" y="0" version="1.1" viewBox="0 0 1200 675" xml:space="preserve" style="enable-background:new 0 0 1200 675"><style type="text/css">.st0{fill:#fff}.st42{fill:#ccc}.st59{fill:#939393}.st142{fill:#f47b67}.st183{fill:#f15a24}.st193{fill:#22b573}.st194{fill:#e8e8e8}.st195{fill:#a8a8a8}.st196{fill:#777}.st197{fill:#4c4c4c}.st199{fill:#3f3f3f}.st201{fill:#5b5b5b}.st205{fill:#bfbfbf}.st225{stroke:#3f3f3f}.st225,.st226,.st227{fill:none;stroke-width:.5553;stroke-miterlimit:10}.st226{stroke:#5b5b5b}.st227{stroke:#f47b67}.st228{font-family:&apos;Lato-Light&apos;}.st229{font-size:13.3276px}.st230{font-size:8.1952px}.st231,.st232{fill:#e8e8e8;stroke:#c6c6c6;stroke-width:.5553;stroke-miterlimit:10}.st232{fill:#fff;stroke-width:.5499}.st233{fill:none;stroke:#929292;stroke-width:.5557}.st233,.st234,.st235{stroke-miterlimit:10}.st234{fill:#fff;stroke:#c6c6c6;stroke-width:.5553}.st235{fill:none;stroke:#939393;stroke-width:1.1106}</style><g><path d="M693.73,220.03H502.47c-2.76,0-4.99-2.24-4.99-4.99v-27.01c0-2.76,2.24-4.99,4.99-4.99h192.15 c2.68,0,4.86,2.18,4.86,4.86v26.39C699.48,217.45,696.89,220.03,693.73,220.03z" class="st42"/><rect width="202" height="6" x="497.48" y="192.03" class="st194"/><path d="M546.97,214.03h-41.98c-1.39,0-2.51-1.12-2.51-2.51v-6.98c0-1.39,1.12-2.51,2.51-2.51h41.98 c1.39,0,2.51,1.12,2.51,2.51v6.98C549.48,212.91,548.36,214.03,546.97,214.03z" class="st195"/><path d="M545.38,212.03h-2.8c-1.71,0-3.1-1.39-3.1-3.1v-2.8c0-1.71,1.39-3.1,3.1-3.1h2.8c1.71,0,3.1,1.39,3.1,3.1 v2.8C548.48,210.65,547.09,212.03,545.38,212.03z" class="st196"/><path d="M533.38,212.03h-2.8c-1.71,0-3.1-1.39-3.1-3.1v-2.8c0-1.71,1.39-3.1,3.1-3.1h2.8c1.71,0,3.1,1.39,3.1,3.1 v2.8C536.48,210.65,535.09,212.03,533.38,212.03z" class="st196"/><path d="M521.38,212.03h-2.8c-1.71,0-3.1-1.39-3.1-3.1v-2.8c0-1.71,1.39-3.1,3.1-3.1h2.8c1.71,0,3.1,1.39,3.1,3.1 v2.8C524.48,210.65,523.09,212.03,521.38,212.03z" class="st196"/><path d="M510.38,212.03h-2.8c-1.71,0-3.1-1.39-3.1-3.1v-2.8c0-1.71,1.39-3.1,3.1-3.1h2.8c1.71,0,3.1,1.39,3.1,3.1 v2.8C513.48,210.65,512.09,212.03,510.38,212.03z" class="st196"/><path d="M509.48,199.73l-1.08,0.09l-0.1-0.4l0.63-0.4h0.55v2l0,0V199.73z" class="st197"/><path d="M519.48,201.07l0.79-0.6c0.07-0.06,0.13-0.11,0.18-0.15c0.05-0.04,0.09-0.09,0.12-0.13 c0.03-0.04,0.05-0.08,0.07-0.12c0.01-0.04,0.02-0.08,0.02-0.13c0-0.09-0.03-0.17-0.08-0.21c-0.05-0.05-0.13-0.07-0.21-0.07 c-0.09,0-0.16,0.02-0.23,0.07c-0.07,0.05-0.14,0.12-0.22,0.22l-0.34-0.27c0.05-0.07,0.11-0.14,0.16-0.2s0.12-0.1,0.18-0.14 c0.06-0.04,0.13-0.07,0.21-0.09s0.17-0.03,0.26-0.03c0.11,0,0.22,0.02,0.31,0.05c0.09,0.03,0.17,0.08,0.24,0.14 c0.07,0.06,0.12,0.13,0.15,0.21c0.04,0.08-0.61,0.28-0.61,0.28v0.01c0,0,0.65,0.17,0.63,0.25c-0.02,0.07-0.06,0.14-0.11,0.2 c-0.05,0.06-0.11,0.13-0.18,0.19c-0.07,0.06-0.16,0.13-0.25,0.21l-0.36,0.27h1.27v1h-2V201.07z" class="st197"/><path d="M531.96,201.49c-0.2,0-0.37-0.04-0.51-0.11c-0.14-0.07-0.26-0.16-0.35-0.28l0.33-0.32 c0.08,0.09,0.15,0.15,0.24,0.2c0.08,0.04,0.18,0.07,0.29,0.07c0.09,0,0.17-0.02,0.22-0.07c0.06-0.05,0.09-0.11,0.29-0.19v-0.01 c-0.21-0.09-0.24-0.16-0.32-0.21c-0.08-0.05-0.18-0.07-0.32-0.55h-0.2l-0.08,0.17l0.52-1.17h-0.61l0,0h1v0.59l-0.32,0.53 c0.08,0.01,0.15,0.03,0.22,0.06c0.07,0.03,0.13,0.06,0.19,0.11c0.06,0.05,0.1,0.11,0.13,0.18s0.78,0.26,0.78,0.26v0.01 c0,0-0.75,0.2-0.79,0.29c-0.04,0.09-0.09,0.16-0.16,0.23c-0.07,0.06-0.15,0.12-0.25,0.15 C532.19,201.48,532.08,201.49,531.96,201.49z" class="st197"/><path d="M543.48,201.03h-0.86l-0.08-0.39l1.21-1.61h-0.27v1h1v1H543.48v1l0,0V201.03z M543.48,201.03v-0.68 l-0.58,0.68H543.48z" class="st197"/><circle cx="505.98" cy="204.53" r=".5" class="st193"/><circle cx="511.98" cy="204.53" r=".5" class="st193"/><circle cx="516.98" cy="204.53" r=".5" class="st193"/><circle cx="522.98" cy="204.53" r=".5" class="st193"/><circle cx="528.98" cy="204.53" r=".5" class="st193"/><circle cx="534.98" cy="204.53" r=".5" class="st193"/><circle cx="540.98" cy="204.53" r=".5" class="st193"/><circle cx="546.98" cy="204.53" r=".5" class="st193"/><path d="M595.97,214.03h-41.98c-1.39,0-2.51-1.12-2.51-2.51v-6.98c0-1.39,1.12-2.51,2.51-2.51h41.98 c1.39,0,2.51,1.12,2.51,2.51v6.98C598.48,212.91,597.36,214.03,595.97,214.03z" class="st195"/><path d="M593.38,212.03h-2.8c-1.71,0-3.1-1.39-3.1-3.1v-2.8c0-1.71,1.39-3.1,3.1-3.1h2.8c1.71,0,3.1,1.39,3.1,3.1 v2.8C596.48,210.65,595.09,212.03,593.38,212.03z" class="st196"/><path d="M581.38,212.03h-2.8c-1.71,0-3.1-1.39-3.1-3.1v-2.8c0-1.71,1.39-3.1,3.1-3.1h2.8c1.71,0,3.1,1.39,3.1,3.1 v2.8C584.48,210.65,583.09,212.03,581.38,212.03z" class="st196"/><path d="M570.38,212.03h-2.8c-1.71,0-3.1-1.39-3.1-3.1v-2.8c0-1.71,1.39-3.1,3.1-3.1h2.8c1.71,0,3.1,1.39,3.1,3.1 v2.8C573.48,210.65,572.09,212.03,570.38,212.03z" class="st196"/><path d="M558.38,212.03h-2.8c-1.71,0-3.1-1.39-3.1-3.1v-2.8c0-1.71,1.39-3.1,3.1-3.1h2.8c1.71,0,3.1,1.39,3.1,3.1 v2.8C561.48,210.65,560.09,212.03,558.38,212.03z" class="st196"/><path d="M557.32,201.51c-0.18,0-0.33-0.03-0.46-0.09c-0.13-0.06-0.25-0.14-0.36-0.24l0.29-0.35 c0.08,0.08,0.17,0.13,0.25,0.18c0.08,0.04,0.17,0.06,0.27,0.06c0.11,0,0.2-0.03,0.27-0.08c0.07-0.05-0.1-0.23-0.1-0.23v-0.01 c0,0,0.17-0.17,0.1-0.22c-0.07-0.05-0.17-0.08-0.28-0.08c-0.07,0-0.13,0.01-0.2,0.02c-0.06,0.02-0.12,0.04-0.17,0.06l-0.28-0.19 l0.06-1.33h0.77l0,0h-0.36l-0.03,1.05c0.04-0.01,0.09-0.02,0.13-0.03c0.04-0.01,0.1-0.01,0.16-0.01c0.11,0,0.21,0.01,0.3,0.04 c0.09,0.03,0.18,0.07,0.25,0.13c0.07,0.06,0.13,0.13,0.17,0.22s0.06,0.19-0.62,0.32v0.01c0.68,0.12,0.66,0.22,0.62,0.31 c-0.04,0.09-0.1,0.17-0.17,0.24c-0.07,0.07-0.16,0.12-0.27,0.15C557.56,201.5,557.45,201.51,557.32,201.51z" class="st197"/><path d="M568.93,201.51c-0.14,0-0.27-0.02-0.37-0.06c-0.1-0.04-0.19-0.1-0.27-0.18c-0.08-0.08-0.14-0.18-0.19-0.31 c-0.05-0.13-0.07-0.3-0.62-0.52v-0.01c0.55-0.17,0.57-0.33,0.61-0.47c0.04-0.15,0.1-0.27,0.18-0.38c0.08-0.11,0.18-0.19,0.3-0.25 c0.12-0.06,0.26-0.09,0.43-0.09c0.08,0,0.14,0.01,0.21,0.02c0.06,0.01,0.12,0.03,0.18,0.05c0.05,0.02,0.11,0.05,0.16,0.08 c0.05,0.03,0.1,0.06,0.15,0.1l-0.25,0.37c-0.04-0.03-0.07-0.05-0.1-0.07c-0.03-0.02-0.07-0.04-0.1-0.05 c-0.04-0.01-0.07-0.03-0.11-0.03c-0.04-0.01-0.08-0.01-0.13-0.01c-0.07,0-0.13,0.01-0.18,0.04s-0.1,0.06-0.13,0.11 c-0.04,0.05-0.07,0.1-0.09,0.16c-0.02,0.06-0.04,0.13-0.04,0.2c0.05-0.04,0.12-0.07,0.19-0.1c0.07-0.03,0.16-0.04,0.27-0.04 s0.21,0.02,0.3,0.05c0.09,0.03,0.18,0.07,0.24,0.13c0.07,0.06,0.12,0.13,0.16,0.22c0.04,0.09,0.06,0.19-0.23,0.3v0.01 c0.29,0.11,0.27,0.22,0.22,0.31c-0.04,0.09-0.1,0.17-0.18,0.24c-0.07,0.07-0.16,0.12-0.27,0.16 C569.16,201.49,569.05,201.51,568.93,201.51z M568.91,201.1c0.12,0,0.21-0.03,0.28-0.09c0.07-0.06,0.1-0.14,0.29-0.23v-0.01 c-0.19-0.09-0.22-0.17-0.29-0.23c-0.07-0.06-0.16-0.09-0.28-0.09c-0.12,0-0.21,0.03-0.28,0.09c-0.07,0.06-0.1,0.13-0.15,0.23v0.01 c0.05,0.09,0.08,0.17,0.15,0.23C568.7,201.06,568.79,201.1,568.91,201.1z" class="st197"/><path d="M580.71,199.03h-1.23l0,0h2v0.61l-1.2,1.39h-0.55L580.71,199.03z" class="st197"/><path d="M592.04,201.51c-0.12,0-0.23-0.02-0.34-0.05c-0.1-0.03-0.19-0.07-0.27-0.13c-0.08-0.06-0.13-0.12-0.18-0.2 c-0.04-0.08-0.78-0.26-0.78-0.26v-0.01c0,0,0.74-0.24,0.8-0.33c0.06-0.08,0.15-0.15,0.27-0.21c-0.09-0.05-0.15-0.12-0.2-0.19 c-0.05-0.07,0.14-0.29,0.14-0.29v-0.01c0,0-0.19-0.16-0.16-0.24c0.04-0.07,0.09-0.14,0.16-0.19c0.07-0.05,0.15-0.1,0.24-0.13 c0.09-0.03,0.2-0.05,0.32-0.05c0.12,0,0.22,0.02,0.32,0.05c0.1,0.03,0.18,0.07,0.24,0.13c0.07,0.05,0.12,0.12,0.16,0.19 c0.04,0.07,0.72,0.24,0.72,0.24v0.01c0,0-0.69,0.22-0.74,0.29c-0.05,0.07-0.12,0.14-0.2,0.19c0.11,0.06,0.2,0.13,0.26,0.21 c0.06,0.08-0.31,0.31-0.31,0.31v0.01c0,0,0.39,0.19,0.34,0.27s-0.1,0.15-0.18,0.2c-0.08,0.06-0.16,0.1-0.27,0.13 C592.27,201.49,592.16,201.51,592.04,201.51z M592.04,201.11c0.12,0,0.21-0.03,0.28-0.08c0.07-0.05,0.1-0.12,0.16-0.19v-0.01 c-0.06-0.09-0.1-0.15-0.17-0.2c-0.07-0.05-0.16-0.07-0.27-0.07c-0.11,0-0.2,0.02-0.27,0.07c-0.07,0.05-0.11,0.11-0.29,0.2v0.01 c0.18,0.08,0.21,0.14,0.28,0.19C591.83,201.08,591.92,201.11,592.04,201.11z M592.04,200.18c0.1,0,0.17-0.03,0.23-0.08 c0.06-0.05,0.08-0.11,0.21-0.19v-0.01c-0.13-0.07-0.15-0.13-0.21-0.18s-0.13-0.08-0.23-0.08c-0.1,0-0.18,0.03-0.23,0.08 c-0.05,0.05-0.08,0.11-0.33,0.18v0.01c0.25,0.08,0.27,0.14,0.33,0.19C591.87,200.15,591.94,200.18,592.04,200.18z" class="st197"/><circle cx="553.98" cy="204.53" r=".5" class="st193"/><circle cx="559.98" cy="204.53" r=".5" class="st193"/><circle cx="565.98" cy="204.53" r=".5" class="st193"/><circle cx="571.98" cy="204.53" r=".5" class="st193"/><circle cx="576.98" cy="204.53" r=".5" class="st193"/><circle cx="583.98" cy="204.53" r=".5" class="st193"/><circle cx="588.98" cy="204.53" r=".5" class="st193"/><circle cx="594.98" cy="204.53" r=".5" class="st193"/><g><circle cx="499.98" cy="207.53" r="1.5" class="st193"/></g><path d="M643.97,214.03h-41.98c-1.39,0-2.51-1.12-2.51-2.51v-6.98c0-1.39,1.12-2.51,2.51-2.51h41.98 c1.39,0,2.51,1.12,2.51,2.51v6.98C646.48,212.91,645.36,214.03,643.97,214.03z" class="st195"/><path d="M642.38,212.03h-2.8c-1.71,0-3.1-1.39-3.1-3.1v-2.8c0-1.71,1.39-3.1,3.1-3.1h2.8c1.71,0,3.1,1.39,3.1,3.1 v2.8C645.48,210.65,644.09,212.03,642.38,212.03z" class="st196"/><path d="M630.38,212.03h-2.8c-1.71,0-3.1-1.39-3.1-3.1v-2.8c0-1.71,1.39-3.1,3.1-3.1h2.8c1.71,0,3.1,1.39,3.1,3.1 v2.8C633.48,210.65,632.09,212.03,630.38,212.03z" class="st196"/><path d="M618.38,212.03h-2.8c-1.71,0-3.1-1.39-3.1-3.1v-2.8c0-1.71,1.39-3.1,3.1-3.1h2.8c1.71,0,3.1,1.39,3.1,3.1 v2.8C621.48,210.65,620.09,212.03,618.38,212.03z" class="st196"/><path d="M607.38,212.03h-2.8c-1.71,0-3.1-1.39-3.1-3.1v-2.8c0-1.71,1.39-3.1,3.1-3.1h2.8c1.71,0,3.1,1.39,3.1,3.1 v2.8C610.48,210.65,609.09,212.03,607.38,212.03z" class="st196"/><path d="M605.79,201.42c-0.16,0-0.3-0.02-0.41-0.07c-0.11-0.05-0.22-0.11-0.31-0.19l0.25-0.37 c0.08,0.06,0.16,0.11,0.23,0.14c0.07,0.03,0.16,0.05,0.25,0.05c0.14,0,0.24-0.05,0.31-0.14c0.07-0.09,0.12-0.21,0.13-0.36 c-0.05,0.05-0.12,0.08-0.19,0.11c-0.07,0.03-0.16,0.04-0.25,0.04c-0.12,0-0.23-0.02-0.32-0.05s-0.18-0.08-0.25-0.14 s-0.12-0.14-0.16-0.22c-0.04-0.09-0.06-0.19-0.59-0.3v-0.01c0.54-0.11,0.56-0.21,0.6-0.31s0.1-0.18,0.17-0.24 c0.07-0.07,0.16-0.12,0.27-0.16c0.1-0.04,0.22-0.06,0.34-0.06c0.07,0,0.14,0,0.2,0.01c0.06,0.01,0.11,0.02,0.16,0.04 c0.05,0.02,0.1,0.04,0.14,0.07c0.04,0.03,0.09,0.07,0.13,0.11c0.04,0.04,0.08,0.08,0.11,0.14c0.03,0.05,0.06,0.11,0.08,0.18 c0.02,0.07,0.04,0.14,0.05,0.23c0.01,0.08,0.02,0.18-0.25,0.29v0.01c0.27,0.18,0.25,0.34,0.21,0.49c-0.04,0.15-0.1,0.27-0.18,0.38 c-0.08,0.1-0.18,0.19-0.3,0.24C606.09,201.39,605.95,201.42,605.79,201.42z M605.88,200.23c0.12,0,0.21-0.03,0.28-0.09 c0.07-0.06,0.1-0.14,0.32-0.23v-0.01c-0.22-0.1-0.25-0.18-0.32-0.24c-0.07-0.06-0.16-0.09-0.29-0.09c-0.12,0-0.21,0.03-0.28,0.09 c-0.07,0.06-0.1,0.14-0.12,0.24v0.01c0.02,0.1,0.05,0.18,0.12,0.24C605.67,200.2,605.76,200.23,605.88,200.23z" class="st197"/><g><path d="M617.48,199.66l-1.61,0.09l-0.1-0.4l0.63-0.33h0.08v2h1V199.66z" class="st197"/><path d="M618.48,201.45c-0.15,0-0.29-0.03-0.41-0.09c-0.12-0.06-0.23-0.14-0.32-0.24c-0.09-0.1-0.15-0.23-0.2-0.37 c-0.05-0.14-0.07-0.29-0.07-0.46v-0.01c0-0.16,0.02-0.32,0.07-0.46c0.05-0.14,0.12-0.26,0.2-0.37c0.09-0.11,0.19-0.19,0.32-0.25 s0.26-0.09,0.41-0.09c0.15,0,0.28,0.03,0.41,0.09c0.12,0.06,0.23,0.14,0.32,0.24c0.09,0.1,0.15,0.23,0.2,0.37s0.07,0.29,0.07,0.46 v0.01c0,0.16-0.02,0.32-0.07,0.46s-0.12,0.26-0.2,0.37c-0.09,0.11-0.19,0.19-0.32,0.25S618.63,201.45,618.48,201.45z M617.98,201.01c0.08,0,0.14-0.02,0.21-0.05c0.06-0.04,0.11-0.09,0.16-0.15c0.04-0.06,0.08-0.14,0.1-0.23 c0.02-0.09,0.03-0.18,0.03-0.29v-0.01c0-0.1-0.01-0.2-0.04-0.29c-0.02-0.09-0.06-0.16-0.1-0.23c-0.04-0.07-0.1-0.12-0.16-0.15 c-0.06-0.04-0.13-0.06-0.2-0.06c-0.08,0-0.14,0.02-0.21,0.05c-0.06,0.04-0.11,0.09-0.16,0.15c-0.04,0.06-0.08,0.14-0.1,0.23 c-0.02,0.09-0.04,0.18-0.04,0.29v0.01c0,0.1,0.01,0.2,0.04,0.29c0.02,0.09,0.06,0.17,0.1,0.23c0.04,0.06,0.1,0.11,0.16,0.15 C617.84,201,617.91,201.01,617.98,201.01z" class="st197"/></g><g><path d="M629.48,199.67l-1.5,0.09l-0.1-0.4l0.63-0.33h-0.03v2h1V199.67z" class="st197"/><path d="M629.48,199.67l-0.17,0.09l-0.1-0.4l0.63-0.33h-0.36v2l0,0V199.67z" class="st197"/></g><g><path d="M639.48,199.68l-0.3,0.09l-0.1-0.4l0.63-0.34h-0.23v2l0,0V199.68z" class="st197"/><path d="M640.48,201.02l0.74-0.6c0.07-0.06,0.13-0.11,0.18-0.15c0.05-0.04,0.09-0.09,0.12-0.13 c0.03-0.04,0.05-0.08,0.07-0.12c0.01-0.04,0.02-0.08,0.02-0.13c0-0.09-0.03-0.17-0.08-0.21c-0.05-0.05-0.13-0.07-0.21-0.07 c-0.09,0-0.16,0.02-0.23,0.07c-0.07,0.05-0.14,0.12-0.22,0.22l-0.34-0.27c0.05-0.07,0.11-0.14,0.16-0.2 c0.06-0.06,0.12-0.1,0.18-0.14c0.06-0.04,0.13-0.07,0.21-0.09s0.17-0.03,0.26-0.03c0.11,0,0.22,0.02,0.31,0.05 c0.09,0.03,0.17,0.08,0.24,0.14c0.07,0.06,0.12,0.13,0.15,0.21c0.04,0.08-0.56,0.28-0.56,0.28v0.01c0,0,0.6,0.17,0.57,0.25 c-0.02,0.07-0.06,0.14-0.11,0.2c-0.05,0.06-0.11,0.13-0.18,0.19c-0.07,0.06-0.16,0.13-0.25,0.21l-0.36,0.33h1.33v1h-2V201.02z" class="st197"/></g><circle cx="602.98" cy="204.53" r=".5" class="st193"/><circle cx="608.98" cy="204.53" r=".5" class="st193"/><circle cx="613.98" cy="204.53" r=".5" class="st193"/><circle cx="620.98" cy="204.53" r=".5" class="st193"/><circle cx="625.98" cy="204.53" r=".5" class="st193"/><circle cx="631.98" cy="204.53" r=".5" class="st193"/><circle cx="637.98" cy="204.53" r=".5" class="st193"/><circle cx="643.98" cy="204.53" r=".5" class="st193"/><path d="M692.97,214.03h-41.98c-1.39,0-2.51-1.12-2.51-2.51v-6.98c0-1.39,1.12-2.51,2.51-2.51h41.98 c1.39,0,2.51,1.12,2.51,2.51v6.98C695.48,212.91,694.36,214.03,692.97,214.03z" class="st195"/><path d="M690.38,212.03h-2.8c-1.71,0-3.1-1.39-3.1-3.1v-2.8c0-1.71,1.39-3.1,3.1-3.1h2.8c1.71,0,3.1,1.39,3.1,3.1 v2.8C693.48,210.65,692.09,212.03,690.38,212.03z" class="st196"/><path d="M679.38,212.03h-2.8c-1.71,0-3.1-1.39-3.1-3.1v-2.8c0-1.71,1.39-3.1,3.1-3.1h2.8c1.71,0,3.1,1.39,3.1,3.1 v2.8C682.48,210.65,681.09,212.03,679.38,212.03z" class="st196"/><path d="M667.38,212.03h-2.8c-1.71,0-3.1-1.39-3.1-3.1v-2.8c0-1.71,1.39-3.1,3.1-3.1h2.8c1.71,0,3.1,1.39,3.1,3.1 v2.8C670.48,210.65,669.09,212.03,667.38,212.03z" class="st196"/><path d="M656.38,212.03h-2.8c-1.71,0-3.1-1.39-3.1-3.1v-2.8c0-1.71,1.39-3.1,3.1-3.1h2.8c1.71,0,3.1,1.39,3.1,3.1 v2.8C659.48,210.65,658.09,212.03,656.38,212.03z" class="st196"/><g><path d="M654.48,199.87l-1.37,0.09l-0.1-0.4l0.63-0.54h-0.17v2h1V199.87z" class="st197"/><path d="M655.24,201.63c-0.2,0-0.37-0.04-0.51-0.11c-0.14-0.07-0.26-0.16-0.35-0.28l0.33-0.32 c0.08,0.09,0.15,0.15,0.24,0.2c0.08,0.04,0.18,0.07,0.29,0.07c0.09,0,0.17-0.02,0.22-0.07c0.06-0.05,0.09-0.11,0.01-0.19v-0.01 c0.08-0.09,0.04-0.16-0.04-0.21c-0.08-0.05-0.18-0.07-0.32,0.31h-0.2l-0.08-0.69l0.52-0.31h-0.9l0,0h1v-0.27l-0.04,0.53 c0.08,0.01,0.15,0.03,0.22,0.06c0.07,0.03,0.13,0.06,0.19,0.11c0.06,0.05,0.1,0.11,0.13,0.18c0.03,0.07,0.5,0.26,0.5,0.26v0.01 c0,0-0.46,0.2-0.5,0.29c-0.04,0.09-0.09,0.16-0.16,0.23c-0.07,0.06-0.15,0.12-0.25,0.15 C655.47,201.62,655.36,201.63,655.24,201.63z" class="st197"/></g><g><path d="M665.48,199.89l-0.91,0.09l-0.1-0.4l0.63-0.56h0.38v2l0,0V199.89z" class="st197"/><path d="M667.48,201.03h-1.59l-0.08-0.23l1.21-1.77h0.46v1h1v1H667.48L667.48,201.03L667.48,201.03L667.48,201.03z M666.48,201.03v-0.68l-0.58,0.68H666.48z" class="st197"/></g><g><path d="M676.48,199.87l-0.24,0.09l-0.1-0.4l0.63-0.54h-0.29v2l0,0V199.87z" class="st197"/><path d="M678.35,201.63c-0.18,0-0.33-0.03-0.46-0.09c-0.13-0.06-0.25-0.14-0.36-0.24l0.29-0.35 c0.08,0.08,0.17,0.13,0.25,0.18c0.08,0.04,0.17,0.06,0.27,0.06c0.11,0,0.2-0.03,0.27-0.08c0.07-0.05-0.13-0.23-0.13-0.23v-0.01 c0,0,0.19-0.17,0.12-0.22c-0.07-0.05-0.17-0.08-0.28-0.08c-0.07,0-0.13,0.01-0.2,0.02c-0.06,0.02-0.12,0.04-0.17,0.06l-0.28-0.19 l0.06-0.45h0.74l0,0h-0.33l-0.03,0.17c0.04-0.01,0.09-0.02,0.13-0.03c0.04-0.01,0.1-0.01,0.16-0.01c0.11,0,0.21,0.01,0.3,0.04 s0.18,0.07,0.25,0.13c0.07,0.06,0.13,0.13,0.17,0.22s0.06,0.19-0.65,0.32v0.01c0.71,0.12,0.69,0.22,0.65,0.31 c-0.04,0.09-0.1,0.17-0.17,0.24c-0.07,0.07-0.16,0.12-0.27,0.15C678.59,201.62,678.48,201.63,678.35,201.63z" class="st197"/></g><g><path d="M688.48,199.88l-0.72,0.09l-0.1-0.4l0.63-0.55h-0.81v2h1V199.88z" class="st197"/><path d="M689.97,201.65c-0.14,0-0.27-0.02-0.37-0.06c-0.1-0.04-0.19-0.1-0.27-0.18c-0.08-0.08-0.14-0.18-0.19-0.31 c-0.05-0.13-0.07-0.3-0.67-0.52v-0.01c0.6-0.17,0.62-0.33,0.66-0.47c0.04-0.15,0.1-0.27,0.18-0.38c0.08-0.11,0.18-0.19,0.3-0.25 c0.12-0.06,0.26-0.09,0.43-0.09c0.08,0,0.14,0.01,0.21,0.02c0.06,0.01,0.12,0.03,0.18,0.05s0.11,0.05,0.16,0.08 c0.05,0.03,0.1,0.06,0.15,0.1l-0.25,0.37c-0.04-0.03-0.07-0.05-0.1-0.07c-0.03-0.02-0.07-0.04-0.1-0.05 c-0.04-0.01-0.07-0.03-0.11-0.03c-0.04-0.01-0.08-0.01-0.13-0.01c-0.07,0-0.13,0.01-0.18,0.04c-0.05,0.03-0.1,0.06-0.13,0.11 c-0.04,0.05-0.07,0.1-0.09,0.16c-0.02,0.06-0.04,0.13-0.04,0.2c0.05-0.04,0.12-0.07,0.19-0.1c0.07-0.03,0.16-0.04,0.27-0.04 s0.21,0.02,0.3,0.05c0.09,0.03,0.18,0.07,0.24,0.13c0.07,0.06,0.12,0.13,0.16,0.22c0.04,0.09,0.06,0.19-0.27,0.3v0.01 c0.33,0.11,0.31,0.22,0.27,0.31c-0.04,0.09-0.1,0.17-0.18,0.24c-0.07,0.07-0.16,0.12-0.27,0.16 C690.2,201.63,690.09,201.65,689.97,201.65z M689.96,201.23c0.12,0,0.21-0.03,0.28-0.09c0.07-0.06,0.1-0.14,0.25-0.23v-0.01 c-0.15-0.09-0.18-0.17-0.25-0.23c-0.07-0.06-0.16-0.09-0.28-0.09c-0.12,0-0.21,0.03-0.28,0.09c-0.07,0.06-0.1,0.13-0.19,0.23v0.01 c0.09,0.09,0.12,0.17,0.19,0.23C689.74,201.2,689.84,201.23,689.96,201.23z" class="st197"/></g><circle cx="650.98" cy="204.53" r=".5" class="st193"/><circle cx="657.98" cy="204.53" r=".5" class="st193"/><circle cx="662.98" cy="204.53" r=".5" class="st193"/><circle cx="668.98" cy="204.53" r=".5" class="st193"/><circle cx="674.98" cy="204.53" r=".5" class="st193"/><circle cx="680.98" cy="204.53" r=".5" class="st193"/><circle cx="685.98" cy="204.53" r=".5" class="st193"/><circle cx="691.98" cy="204.53" r=".5" class="st193"/></g><g><g><path d="M159.98,314.64l-0.01-57c0-6.11,5-11.11,11.1-11.11l326.8,0c6.11,0,11.11-5,11.11-11.11v-27" class="st225"/><g><rect width="2.93" height="2.93" x="158.51" y="313.1" class="st199"/></g><g><rect width="2.93" height="2.93" x="507.51" y="207.03" class="st199"/></g></g></g><g><g><path d="M272.98,391.64v-121c0-6.11,5-11.11,11.11-11.11l225.79,0c6.11,0,11.11-5,11.11-11.11v-41.01" class="st225"/><g><rect width="2.93" height="2.93" x="271.51" y="390.1" class="st199"/></g><g><rect width="2.93" height="2.93" x="519.51" y="206.03" class="st199"/></g></g></g><g><g><path d="M384.98,314.64v-31c0-6.11,5-11.11,11.11-11.11l124.79-0.02c6.11,0,11.11-5,11.11-11.11v-52.98" class="st225"/><g><rect width="2.93" height="2.93" x="383.51" y="313.1" class="st199"/></g><g><rect width="2.93" height="2.93" x="530.51" y="207.03" class="st199"/></g></g></g><g><g><path d="M497.98,391.64v-95c0-6.11,5-11.11,11.11-11.11l23.79,0c6.11,0,11.11-5,11.11-11.11v-66" class="st225"/><g><rect width="2.93" height="2.93" x="496.51" y="390.1" class="st199"/></g><g><rect width="2.93" height="2.93" x="542.51" y="207.03" class="st199"/></g></g></g><g><g><path d="M946.98,391.64l0.01-134c0-6.11-5-11.11-11.11-11.11l-332.8,0c-6.11,0-11.11-5-11.11-11.11v-27" class="st225"/><g><rect width="2.93" height="2.93" x="945.51" y="390.1" class="st199"/></g><g><rect width="2.93" height="2.93" x="590.51" y="207.03" class="st199"/></g></g></g><g><g><path d="M834.98,314.64v-44c0-6.11-5-11.11-11.11-11.11l-232.79,0c-6.11,0-11.11-5-11.11-11.11v-41.01" class="st225"/><g><rect width="2.93" height="2.93" x="833.51" y="313.1" class="st199"/></g><g><rect width="2.93" height="2.93" x="578.51" y="206.03" class="st199"/></g></g></g><g><g><path d="M721.98,391.64v-108c0-6.11-5-11.11-11.11-11.11l-130.79-0.02c-6.11,0-11.11-5-11.11-11.11v-52.98" class="st225"/><g><rect width="2.93" height="2.93" x="720.51" y="390.1" class="st199"/></g><g><rect width="2.93" height="2.93" x="567.51" y="207.03" class="st199"/></g></g></g><g><g><path d="M609.98,314.64v-18c0-6.11-5-11.11-11.11-11.11l-30.79,0c-6.11,0-11.11-5-11.11-11.11v-66" class="st225"/><g><rect width="2.93" height="2.93" x="608.51" y="313.1" class="st199"/></g><g><rect width="2.93" height="2.93" x="555.51" y="207.03" class="st199"/></g></g></g><g><g><path d="M727.98,0.03l-0.01,222.39c0,6.11-5,11.11-11.11,11.11h-16.78c-6.11,0-11.11-5-11.11-11.11v-14" class="st226"/><g><rect width="2.93" height="2.93" x="687.51" y="207.03" class="st201"/></g></g></g><g><g><line x1="685.07" x2="1045.48" y1="189.53" y2="189.53" class="st227"/><g><circle cx="685.15" cy="189.53" r="1.67" class="st142"/></g></g></g><g><g><g><line x1="834.98" x2="834.98" y1="487.64" y2="372.43" class="st225"/><g><rect width="2.93" height="2.93" x="833.51" y="486.1" class="st199"/></g><g><rect width="2.93" height="2.93" x="833.51" y="371.03" class="st199"/></g></g></g></g><g><g><g><line x1="722.98" x2="722.98" y1="487.64" y2="448.43" class="st225"/><g><rect width="2.93" height="2.93" x="721.51" y="486.1" class="st199"/></g><g><rect width="2.93" height="2.93" x="721.51" y="447.03" class="st199"/></g></g></g></g><g><g><g><line x1="609.98" x2="609.98" y1="487.64" y2="372.43" class="st225"/><g><rect width="2.93" height="2.93" x="608.51" y="486.1" class="st199"/></g><g><rect width="2.93" height="2.93" x="608.51" y="371.03" class="st199"/></g></g></g></g><g><g><line x1="159.98" x2="159.98" y1="372.43" y2="487.64" class="st225"/><g><rect width="2.93" height="2.93" x="158.51" y="371.03" class="st199"/></g><g><rect width="2.93" height="2.93" x="158.51" y="486.1" class="st199"/></g></g></g><g><g><g><line x1="272.98" x2="272.98" y1="448.43" y2="487.64" class="st225"/><g><rect width="2.93" height="2.93" x="271.51" y="447.03" class="st199"/></g><g><rect width="2.93" height="2.93" x="271.51" y="486.1" class="st199"/></g></g></g></g><g><g><g><line x1="384.98" x2="384.98" y1="372.43" y2="487.64" class="st225"/><g><rect width="2.93" height="2.93" x="383.51" y="371.03" class="st199"/></g><g><rect width="2.93" height="2.93" x="383.51" y="486.1" class="st199"/></g></g></g></g><g><g><g><line x1="497.98" x2="497.98" y1="448.43" y2="487.64" class="st225"/><g><rect width="2.93" height="2.93" x="496.51" y="447.03" class="st199"/></g><g><rect width="2.93" height="2.93" x="496.51" y="486.1" class="st199"/></g></g></g></g><g><g><line x1="727.07" x2="1045.48" y1="89.53" y2="89.53" class="st227"/><g><circle cx="727.15" cy="89.53" r="1.67" class="st142"/></g></g></g><g><text class="st228 st229" transform="matrix(1 0 0 1 1057.5227 95.169)">INTERNET</text></g><g><text transform="matrix(1 0 0 1 1057.5227 194.0996)"><tspan x="0" y="0" class="st228 st229">16-PORT</tspan><tspan x="0" y="15.99" class="st228 st229">10 GIGABIT</tspan><tspan x="0" y="31.99" class="st228 st229">ETHERNET</tspan><tspan x="0" y="47.98" class="st228 st229">SWITCH</tspan></text></g><g><text class="st228 st229" transform="matrix(1 0 0 1 1057.5227 349.1426)">8 SERVERS</text></g><text class="st228 st230" transform="matrix(1 0 0 1 117.1653 311.7871)">NODE 1</text><g><text class="st228 st230" transform="matrix(1 0 0 1 229.6213 388.7305)">NODE 2</text></g><text class="st228 st230" transform="matrix(1 0 0 1 342.0774 311.7871)">NODE 3</text><g><text class="st228 st230" transform="matrix(1 0 0 1 454.5334 388.7305)">NODE 4</text></g><text class="st228 st230" transform="matrix(1 0 0 1 566.989 311.7871)">NODE 5</text><g><text class="st228 st230" transform="matrix(1 0 0 1 679.4446 388.7305)">NODE 6</text></g><text class="st228 st230" transform="matrix(1 0 0 1 791.9006 311.7871)">NODE 7</text><text class="st228 st230" transform="matrix(1 0 0 1 904.3567 388.7305)">NODE 8</text><text class="st228 st230" transform="matrix(1 0 0 1 173.7927 311.7871)">192.168.1.11:9000</text><g><text class="st228 st230" transform="matrix(1 0 0 1 286.2483 388.7305)">192.168.1.12:9000</text></g><text class="st228 st230" transform="matrix(1 0 0 1 398.7043 311.7871)">192.168.1.13:9000</text><g><text class="st228 st230" transform="matrix(1 0 0 1 511.1604 388.7305)">192.168.1.14:9000</text></g><text class="st228 st230" transform="matrix(1 0 0 1 617.5256 311.7871)">192.168.1.15:9000</text><g><text class="st228 st230" transform="matrix(1 0 0 1 728.6155 388.7305)">192.168.1.16:9000</text></g><text class="st228 st230" transform="matrix(1 0 0 1 843.3484 311.7871)">192.168.1.17:9000</text><text class="st228 st230" transform="matrix(1 0 0 1 954.8933 388.7305)">192.168.1.18:9000</text><g><text class="st228 st230" transform="matrix(1 0 0 1 142.6916 586.3262)">EXPORT 1</text></g><g><text class="st228 st230" transform="matrix(1 0 0 1 255.1477 586.3262)">EXPORT 2</text></g><g><text class="st228 st230" transform="matrix(1 0 0 1 817.427 586.3262)">EXPORT 7</text></g><g><text class="st228 st230" transform="matrix(1 0 0 1 704.9709 586.3262)">EXPORT 6</text></g><g><text class="st228 st230" transform="matrix(1 0 0 1 592.5154 586.3262)">EXPORT 5</text></g><g><text class="st228 st230" transform="matrix(1 0 0 1 480.0593 586.3262)">EXPORT 4</text></g><g><text class="st228 st230" transform="matrix(1 0 0 1 366.4914 586.3262)">EXPORT 3</text></g><g><path d="M919.39,370.53H751.57c-2.54,0-4.59-2.06-4.59-4.59v-45.82c0-2.54,2.06-4.59,4.59-4.59h167.82 c2.54,0,4.59,2.06,4.59,4.59v45.82C923.98,368.48,921.92,370.53,919.39,370.53z" class="st231"/><g><circle cx="846.48" cy="339.03" r="3" class="st59"/><circle cx="858.48" cy="339.03" r="3" class="st59"/><circle cx="869.48" cy="339.03" r="3" class="st59"/><circle cx="881.48" cy="339.03" r="3" class="st59"/><circle cx="892.48" cy="339.03" r="3" class="st59"/><circle cx="852.48" cy="347.03" r="3" class="st59"/><circle cx="864.48" cy="347.03" r="3" class="st59"/><circle cx="875.48" cy="347.03" r="3" class="st59"/><circle cx="887.48" cy="347.03" r="3" class="st59"/><circle cx="898.48" cy="347.03" r="3" class="st59"/></g><circle cx="780.48" cy="343.03" r="10.5" class="st232"/></g><g><g><line x1="918.07" x2="1046.48" y1="343.53" y2="343.53" class="st227"/><g><circle cx="918.15" cy="343.53" r="1.67" class="st142"/></g></g></g><g><path d="M694.39,370.53H526.57c-2.54,0-4.59-2.06-4.59-4.59v-45.82c0-2.54,2.06-4.59,4.59-4.59h167.82 c2.54,0,4.59,2.06,4.59,4.59v45.82C698.98,368.48,696.92,370.53,694.39,370.53z" class="st231"/><g><circle cx="621.48" cy="339.03" r="3" class="st59"/><circle cx="633.48" cy="339.03" r="3" class="st59"/><circle cx="644.48" cy="339.03" r="3" class="st59"/><circle cx="656.48" cy="339.03" r="3" class="st59"/><circle cx="667.48" cy="339.03" r="3" class="st59"/><circle cx="627.48" cy="347.03" r="3" class="st59"/><circle cx="639.48" cy="347.03" r="3" class="st59"/><circle cx="650.48" cy="347.03" r="3" class="st59"/><circle cx="662.48" cy="347.03" r="3" class="st59"/><circle cx="673.48" cy="347.03" r="3" class="st59"/></g><circle cx="555.48" cy="343.03" r="10.5" class="st232"/></g><g><path d="M244.39,370.53H76.57c-2.54,0-4.59-2.06-4.59-4.59v-45.82c0-2.54,2.06-4.59,4.59-4.59h167.82 c2.54,0,4.59,2.06,4.59,4.59v45.82C248.98,368.48,246.92,370.53,244.39,370.53z" class="st231"/><g><circle cx="172.48" cy="339.03" r="3" class="st59"/><circle cx="183.48" cy="339.03" r="3" class="st59"/><circle cx="195.48" cy="339.03" r="3" class="st59"/><circle cx="206.48" cy="339.03" r="3" class="st59"/><circle cx="218.48" cy="339.03" r="3" class="st59"/><circle cx="178.48" cy="347.03" r="3" class="st59"/><circle cx="189.48" cy="347.03" r="3" class="st59"/><circle cx="201.48" cy="347.03" r="3" class="st59"/><circle cx="212.48" cy="347.03" r="3" class="st59"/><circle cx="224.48" cy="347.03" r="3" class="st59"/></g><circle cx="105.48" cy="343.03" r="10.5" class="st232"/></g><g><path d="M357.39,447.53H189.57c-2.54,0-4.59-2.06-4.59-4.59v-45.82c0-2.54,2.06-4.59,4.59-4.59h167.82 c2.54,0,4.59,2.06,4.59,4.59v45.82C361.98,445.48,359.92,447.53,357.39,447.53z" class="st231"/><g><circle cx="284.48" cy="416.03" r="3" class="st59"/><circle cx="296.48" cy="416.03" r="3" class="st59"/><circle cx="307.48" cy="416.03" r="3" class="st59"/><circle cx="319.48" cy="416.03" r="3" class="st59"/><circle cx="330.48" cy="416.03" r="3" class="st59"/><circle cx="290.48" cy="424.03" r="3" class="st59"/><circle cx="302.48" cy="424.03" r="3" class="st59"/><circle cx="313.48" cy="424.03" r="3" class="st59"/><circle cx="325.48" cy="424.03" r="3" class="st59"/><circle cx="336.48" cy="424.03" r="3" class="st59"/></g><circle cx="218.48" cy="420.03" r="10.5" class="st232"/></g><g><path d="M469.39,370.53H301.57c-2.54,0-4.59-2.06-4.59-4.59v-45.82c0-2.54,2.06-4.59,4.59-4.59h167.82 c2.54,0,4.59,2.06,4.59,4.59v45.82C473.98,368.48,471.92,370.53,469.39,370.53z" class="st231"/><g><circle cx="397.48" cy="339.03" r="3" class="st59"/><circle cx="408.48" cy="339.03" r="3" class="st59"/><circle cx="420.48" cy="339.03" r="3" class="st59"/><circle cx="431.48" cy="339.03" r="3" class="st59"/><circle cx="442.48" cy="339.03" r="3" class="st59"/><circle cx="403.48" cy="347.03" r="3" class="st59"/><circle cx="414.48" cy="347.03" r="3" class="st59"/><circle cx="426.48" cy="347.03" r="3" class="st59"/><circle cx="437.48" cy="347.03" r="3" class="st59"/><circle cx="448.48" cy="347.03" r="3" class="st59"/></g><circle cx="330.48" cy="343.03" r="10.5" class="st232"/></g><g><path d="M581.39,447.53H413.57c-2.54,0-4.59-2.06-4.59-4.59v-45.82c0-2.54,2.06-4.59,4.59-4.59h167.82 c2.54,0,4.59,2.06,4.59,4.59v45.82C585.98,445.48,583.92,447.53,581.39,447.53z" class="st231"/><g><circle cx="509.48" cy="416.03" r="3" class="st59"/><circle cx="520.48" cy="416.03" r="3" class="st59"/><circle cx="532.48" cy="416.03" r="3" class="st59"/><circle cx="543.48" cy="416.03" r="3" class="st59"/><circle cx="555.48" cy="416.03" r="3" class="st59"/><circle cx="515.48" cy="424.03" r="3" class="st59"/><circle cx="526.48" cy="424.03" r="3" class="st59"/><circle cx="538.48" cy="424.03" r="3" class="st59"/><circle cx="549.48" cy="424.03" r="3" class="st59"/><circle cx="561.48" cy="424.03" r="3" class="st59"/></g><circle cx="443.48" cy="420.03" r="10.5" class="st232"/></g><g><path d="M806.39,447.53H638.57c-2.54,0-4.59-2.06-4.59-4.59v-45.82c0-2.54,2.06-4.59,4.59-4.59h167.82 c2.54,0,4.59,2.06,4.59,4.59v45.82C810.98,445.48,808.92,447.53,806.39,447.53z" class="st231"/><g><circle cx="734.48" cy="416.03" r="3" class="st59"/><circle cx="745.48" cy="416.03" r="3" class="st59"/><circle cx="757.48" cy="416.03" r="3" class="st59"/><circle cx="768.48" cy="416.03" r="3" class="st59"/><circle cx="780.48" cy="416.03" r="3" class="st59"/><circle cx="740.48" cy="424.03" r="3" class="st59"/><circle cx="751.48" cy="424.03" r="3" class="st59"/><circle cx="763.48" cy="424.03" r="3" class="st59"/><circle cx="774.48" cy="424.03" r="3" class="st59"/><circle cx="786.48" cy="424.03" r="3" class="st59"/></g><circle cx="667.48" cy="420.03" r="10.5" class="st232"/></g><g><path d="M1031.39,447.53H863.57c-2.54,0-4.59-2.06-4.59-4.59v-45.82c0-2.54,2.06-4.59,4.59-4.59h167.82 c2.54,0,4.59,2.06,4.59,4.59v45.82C1035.98,445.48,1033.92,447.53,1031.39,447.53z" class="st231"/><g><circle cx="959.48" cy="416.03" r="3" class="st59"/><circle cx="970.48" cy="416.03" r="3" class="st59"/><circle cx="982.48" cy="416.03" r="3" class="st59"/><circle cx="993.48" cy="416.03" r="3" class="st59"/><circle cx="1005.48" cy="416.03" r="3" class="st59"/><circle cx="965.48" cy="424.03" r="3" class="st59"/><circle cx="976.48" cy="424.03" r="3" class="st59"/><circle cx="988.48" cy="424.03" r="3" class="st59"/><circle cx="999.48" cy="424.03" r="3" class="st59"/><circle cx="1011.48" cy="424.03" r="3" class="st59"/></g><circle cx="892.48" cy="420.03" r="10.5" class="st232"/></g><g><g><line x1="947.98" x2="947.98" y1="487.64" y2="448.43" class="st225"/><g><rect width="2.93" height="2.93" x="946.51" y="486.1" class="st199"/></g><g><rect width="2.93" height="2.93" x="946.51" y="447.03" class="st199"/></g></g></g><g><text transform="matrix(1 0 0 1 1057.5227 538.1768)"><tspan x="0" y="0" class="st228 st229">8 8TB</tspan><tspan x="0" y="15.99" class="st228 st229">DRIVES</tspan></text></g><g><text class="st228 st230" transform="matrix(1 0 0 1 929.8831 586.3262)">EXPORT 8</text></g><g><path d="M867.48,491.43c0-1.33-1.07-2.4-2.4-2.4h-30.1h-30.1c-1.33,0-2.4,1.07-2.4,2.4v81.2c0,1.33,1.07,2.4,2.4,2.4 h30.1h30.1c1.33,0,2.4-1.07,2.4-2.4V491.43z" class="st205"/><path d="M834.98,574.03l0-12.67c2.8-0.08,5.5-0.53,8.07-1.3l6.55,4.77c0.14,0.1,0.27,0.21,0.42,0.3l0.05,0.03l0,0 c1.95,1.28,4.41,1.87,7.01,1.36c3.76-0.72,6.75-3.78,7.41-7.55c0.71-4.13-1.26-7.87-4.46-9.77c0.2-0.27,4.04-5.44,4.38-6.67h3.07" class="st233"/><circle cx="835.08" cy="529.2" r="29.54" class="st234"/><circle cx="807.48" cy="493.03" r="2" class="st59"/><circle cx="863.48" cy="493.03" r="2" class="st59"/><circle cx="807.48" cy="570.03" r="2" class="st59"/><circle cx="863.48" cy="570.03" r="2" class="st59"/><circle cx="834.97" cy="529.2" r="2.36" class="st59"/><circle cx="834.97" cy="529.2" r="2.36" class="st59"/><circle cx="834.97" cy="529.2" r="5.6" class="st235"/><path d="M857.86,551.25l-31.26-9.6c-0.12-0.03-0.24-0.05-0.36-0.05c-0.8,0-1.44,0.64-1.44,1.44 c0,0.47,0.22,0.88,0.57,1.14l0,0.01l26.14,19.03l0,0c1.07,0.7,2.35,1.11,3.73,1.11c3.76,0,6.8-3.05,6.8-6.8 C862.03,554.7,860.31,552.28,857.86,551.25z" class="st183"/><g><circle cx="854.98" cy="557.53" r="4.5" class="st0"/></g></g><g><path d="M755.48,491.43c0-1.33-1.07-2.4-2.4-2.4h-30.1h-30.1c-1.33,0-2.4,1.07-2.4,2.4v81.2c0,1.33,1.07,2.4,2.4,2.4 h30.1h30.1c1.33,0,2.4-1.07,2.4-2.4V491.43z" class="st205"/><path d="M722.98,574.03l0-12.67c2.8-0.08,5.5-0.53,8.07-1.3l6.55,4.77c0.14,0.1,0.27,0.21,0.42,0.3l0.05,0.03l0,0 c1.95,1.28,4.41,1.87,7.01,1.36c3.76-0.72,6.75-3.78,7.41-7.55c0.71-4.13-1.26-7.87-4.46-9.77c0.2-0.27,4.04-5.44,4.38-6.67h3.07" class="st233"/><circle cx="722.62" cy="529.2" r="29.54" class="st234"/><circle cx="694.48" cy="493.03" r="2" class="st59"/><circle cx="750.48" cy="493.03" r="2" class="st59"/><circle cx="694.48" cy="570.03" r="2" class="st59"/><circle cx="750.48" cy="570.03" r="2" class="st59"/><circle cx="722.52" cy="529.2" r="2.36" class="st59"/><circle cx="722.52" cy="529.2" r="2.36" class="st59"/><circle cx="722.52" cy="529.2" r="5.6" class="st235"/><path d="M745.4,551.25l-31.26-9.6c-0.12-0.03-0.24-0.05-0.36-0.05c-0.8,0-1.44,0.64-1.44,1.44 c0,0.47,0.22,0.88,0.57,1.14l0,0.01l26.14,19.03l0,0c1.07,0.7,2.35,1.11,3.73,1.11c3.76,0,6.8-3.05,6.8-6.8 C749.57,554.7,747.85,552.28,745.4,551.25z" class="st183"/><g><circle cx="742.98" cy="557.53" r="4.5" class="st0"/></g></g><g><path d="M642.48,491.43c0-1.33-1.07-2.4-2.4-2.4h-30.1h-30.1c-1.33,0-2.4,1.07-2.4,2.4v81.2c0,1.33,1.07,2.4,2.4,2.4 h30.1h30.1c1.33,0,2.4-1.07,2.4-2.4V491.43z" class="st205"/><path d="M609.98,574.03l0-12.67c2.8-0.08,5.5-0.53,8.07-1.3l6.55,4.77c0.14,0.1,0.27,0.21,0.42,0.3l0.05,0.03l0,0 c1.95,1.28,4.41,1.87,7.01,1.36c3.76-0.72,6.75-3.78,7.41-7.55c0.71-4.13-1.26-7.87-4.46-9.77c0.2-0.27,4.04-5.44,4.38-6.67h3.07" class="st233"/><circle cx="610.17" cy="529.2" r="29.54" class="st234"/><circle cx="582.48" cy="493.03" r="2" class="st59"/><circle cx="638.48" cy="493.03" r="2" class="st59"/><circle cx="582.48" cy="570.03" r="2" class="st59"/><circle cx="638.48" cy="570.03" r="2" class="st59"/><circle cx="610.06" cy="529.2" r="2.36" class="st59"/><circle cx="610.06" cy="529.2" r="2.36" class="st59"/><circle cx="610.06" cy="529.2" r="5.6" class="st235"/><path d="M632.94,551.25l-31.26-9.6c-0.12-0.03-0.24-0.05-0.36-0.05c-0.8,0-1.44,0.64-1.44,1.44 c0,0.47,0.22,0.88,0.57,1.14l0,0.01l26.14,19.03l0,0c1.07,0.7,2.35,1.11,3.73,1.11c3.76,0,6.8-3.05,6.8-6.8 C637.11,554.7,635.39,552.28,632.94,551.25z" class="st183"/><g><circle cx="629.98" cy="557.53" r="4.5" class="st0"/></g></g><g><path d="M530.48,491.43c0-1.33-1.07-2.4-2.4-2.4h-30.1h-30.1c-1.33,0-2.4,1.07-2.4,2.4v81.2c0,1.33,1.07,2.4,2.4,2.4 h30.1h30.1c1.33,0,2.4-1.07,2.4-2.4V491.43z" class="st205"/><path d="M497.98,574.03l0-12.67c2.8-0.08,5.5-0.53,8.07-1.3l6.55,4.77c0.14,0.1,0.27,0.21,0.42,0.3l0.05,0.03l0,0 c1.95,1.28,4.41,1.87,7.01,1.36c3.76-0.72,6.75-3.78,7.41-7.55c0.71-4.13-1.26-7.87-4.46-9.77c0.2-0.27,4.04-5.44,4.38-6.67h3.07" class="st233"/><circle cx="497.71" cy="529.2" r="29.54" class="st234"/><circle cx="469.48" cy="493.03" r="2" class="st59"/><circle cx="525.48" cy="493.03" r="2" class="st59"/><circle cx="469.48" cy="570.03" r="2" class="st59"/><circle cx="525.48" cy="570.03" r="2" class="st59"/><circle cx="497.6" cy="529.2" r="2.36" class="st59"/><circle cx="497.6" cy="529.2" r="2.36" class="st59"/><circle cx="497.6" cy="529.2" r="5.6" class="st235"/><path d="M520.49,551.25l-31.26-9.6c-0.12-0.03-0.24-0.05-0.36-0.05c-0.8,0-1.44,0.64-1.44,1.44 c0,0.47,0.22,0.88,0.57,1.14l0,0.01l26.14,19.03l0,0c1.07,0.7,2.35,1.11,3.73,1.11c3.76,0,6.8-3.05,6.8-6.8 C524.66,554.7,522.94,552.28,520.49,551.25z" class="st183"/><g><circle cx="517.98" cy="557.53" r="4.5" class="st0"/></g></g><g><path d="M417.48,491.43c0-1.33-1.07-2.4-2.4-2.4h-30.1h-30.1c-1.33,0-2.4,1.07-2.4,2.4v81.2c0,1.33,1.07,2.4,2.4,2.4 h30.1h30.1c1.33,0,2.4-1.07,2.4-2.4V491.43z" class="st205"/><path d="M384.98,574.03l0-12.67c2.8-0.08,5.5-0.53,8.07-1.3l6.55,4.77c0.14,0.1,0.27,0.21,0.42,0.3l0.05,0.03l0,0 c1.95,1.28,4.41,1.87,7.01,1.36c3.76-0.72,6.75-3.78,7.41-7.55c0.71-4.13-1.26-7.87-4.46-9.77c0.2-0.27,4.04-5.44,4.38-6.67h3.07" class="st233"/><circle cx="385.26" cy="529.2" r="29.54" class="st234"/><circle cx="357.48" cy="493.03" r="2" class="st59"/><circle cx="413.48" cy="493.03" r="2" class="st59"/><circle cx="357.48" cy="570.03" r="2" class="st59"/><circle cx="413.48" cy="570.03" r="2" class="st59"/><circle cx="385.15" cy="529.2" r="2.36" class="st59"/><circle cx="385.15" cy="529.2" r="2.36" class="st59"/><circle cx="385.15" cy="529.2" r="5.6" class="st235"/><path d="M408.03,551.25l-31.26-9.6c-0.12-0.03-0.24-0.05-0.36-0.05c-0.8,0-1.44,0.64-1.44,1.44 c0,0.47,0.22,0.88,0.57,1.14l0,0.01l26.14,19.03l0,0c1.07,0.7,2.35,1.11,3.73,1.11c3.76,0,6.8-3.05,6.8-6.8 C412.2,554.7,410.48,552.28,408.03,551.25z" class="st183"/><g><circle cx="404.98" cy="557.53" r="4.5" class="st0"/></g></g><g><path d="M305.48,491.43c0-1.33-1.07-2.4-2.4-2.4h-30.1h-30.1c-1.33,0-2.4,1.07-2.4,2.4v81.2c0,1.33,1.07,2.4,2.4,2.4 h30.1h30.1c1.33,0,2.4-1.07,2.4-2.4V491.43z" class="st205"/><path d="M272.98,574.03l0-12.67c2.8-0.08,5.5-0.53,8.07-1.3l6.55,4.77c0.14,0.1,0.27,0.21,0.42,0.3l0.05,0.03l0,0 c1.95,1.28,4.41,1.87,7.01,1.36c3.76-0.72,6.75-3.78,7.41-7.55c0.71-4.13-1.26-7.87-4.46-9.77c0.2-0.27,4.04-5.44,4.38-6.67h3.07" class="st233"/><circle cx="272.8" cy="529.2" r="29.54" class="st234"/><circle cx="244.48" cy="493.03" r="2" class="st59"/><circle cx="300.48" cy="493.03" r="2" class="st59"/><circle cx="244.48" cy="570.03" r="2" class="st59"/><circle cx="300.48" cy="570.03" r="2" class="st59"/><circle cx="272.69" cy="529.2" r="2.36" class="st59"/><circle cx="272.69" cy="529.2" r="2.36" class="st59"/><circle cx="272.69" cy="529.2" r="5.6" class="st235"/><path d="M295.58,551.25l-31.26-9.6c-0.12-0.03-0.24-0.05-0.36-0.05c-0.8,0-1.44,0.64-1.44,1.44 c0,0.47,0.22,0.88,0.57,1.14l0,0.01l26.14,19.03l0,0c1.07,0.7,2.35,1.11,3.73,1.11c3.76,0,6.8-3.05,6.8-6.8 C299.75,554.7,298.03,552.28,295.58,551.25z" class="st183"/><g><circle cx="292.98" cy="557.53" r="4.5" class="st0"/></g></g><g><path d="M192.48,491.43c0-1.33-1.07-2.4-2.4-2.4h-30.1h-30.1c-1.33,0-2.4,1.07-2.4,2.4v81.2c0,1.33,1.07,2.4,2.4,2.4 h30.1h30.1c1.33,0,2.4-1.07,2.4-2.4V491.43z" class="st205"/><path d="M159.98,574.03l0-12.67c2.8-0.08,5.5-0.53,8.07-1.3l6.55,4.77c0.14,0.1,0.27,0.21,0.42,0.3l0.05,0.03l0,0 c1.95,1.28,4.41,1.87,7.01,1.36c3.76-0.72,6.75-3.78,7.41-7.55c0.71-4.13-1.26-7.87-4.46-9.77c0.2-0.27,4.04-5.44,4.38-6.67h3.07" class="st233"/><circle cx="160.34" cy="529.2" r="29.54" class="st234"/><circle cx="132.48" cy="493.03" r="2" class="st59"/><circle cx="188.48" cy="493.03" r="2" class="st59"/><circle cx="132.48" cy="570.03" r="2" class="st59"/><circle cx="188.48" cy="570.03" r="2" class="st59"/><circle cx="160.24" cy="529.2" r="2.36" class="st59"/><circle cx="160.24" cy="529.2" r="2.36" class="st59"/><circle cx="160.24" cy="529.2" r="5.6" class="st235"/><path d="M183.12,551.25l-31.26-9.6c-0.12-0.03-0.24-0.05-0.36-0.05c-0.8,0-1.44,0.64-1.44,1.44 c0,0.47,0.22,0.88,0.57,1.14l0,0.01l26.14,19.03l0,0c1.07,0.7,2.35,1.11,3.73,1.11c3.76,0,6.8-3.05,6.8-6.8 C187.29,554.7,185.57,552.28,183.12,551.25z" class="st183"/><g><circle cx="180.98" cy="557.53" r="4.5" class="st0"/></g></g><g><path d="M980.48,491.43c0-1.33-1.07-2.4-2.4-2.4h-30.1h-30.1c-1.33,0-2.4,1.07-2.4,2.4v81.2c0,1.33,1.07,2.4,2.4,2.4 h30.1h30.1c1.33,0,2.4-1.07,2.4-2.4V491.43z" class="st205"/><path d="M947.98,574.03l0-12.67c2.8-0.08,5.5-0.53,8.07-1.3l6.55,4.77c0.14,0.1,0.27,0.21,0.42,0.3l0.05,0.03l0,0 c1.95,1.28,4.41,1.87,7.01,1.36c3.76-0.72,6.75-3.78,7.41-7.55c0.71-4.13-1.26-7.87-4.46-9.77c0.2-0.27,4.04-5.44,4.38-6.67h3.07" class="st233"/><circle cx="947.54" cy="529.2" r="29.54" class="st234"/><circle cx="919.48" cy="493.03" r="2" class="st59"/><circle cx="975.48" cy="493.03" r="2" class="st59"/><circle cx="919.48" cy="570.03" r="2" class="st59"/><circle cx="975.48" cy="570.03" r="2" class="st59"/><circle cx="947.43" cy="529.2" r="2.36" class="st59"/><circle cx="947.43" cy="529.2" r="2.36" class="st59"/><circle cx="947.43" cy="529.2" r="5.6" class="st235"/><path d="M970.31,551.25l-31.26-9.6c-0.12-0.03-0.24-0.05-0.36-0.05c-0.8,0-1.44,0.64-1.44,1.44 c0,0.47,0.22,0.88,0.57,1.14l0,0.01l26.14,19.03l0,0c1.07,0.7,2.35,1.11,3.73,1.11c3.76,0,6.8-3.05,6.8-6.8 C974.48,554.7,972.76,552.28,970.31,551.25z" class="st183"/><g><circle cx="967.98" cy="557.53" r="4.5" class="st0"/></g></g><g><g><line x1="961.07" x2="1046.48" y1="532.53" y2="532.58" class="st227"/><g><circle cx="961.15" cy="532.53" r="1.67" class="st142"/></g></g></g></svg>